<svg viewBox="0 0 127 32" fill="none" xmlns="http://www.w3.org/2000/svg">
  <g clip-path="url(#clip0)">
  <path d="M90.2887 26.0674H85.5028V10.1111H90.2887C94.8917 10.1111 97.7035 12.7978 97.7035 18.0459C97.7035 23.5541 94.5835 26.0674 90.2887 26.0674ZM90.2887 4.8148H80.0235V31.4311H90.3272C98.1561 31.4311 103.327 26.0674 103.327 18.0844C103.327 10.1015 98.0791 4.8148 90.2887 4.8148ZM71.4435 25.9422L55.8243 26C55.1887 26.0096 53.1761 26.0096 51.8087 25.817C49.748 25.5185 49.748 24.6711 49.5361 23.3711C49.3339 22.1385 47.8606 21.9074 46.8976 21.7726C45.3568 21.5607 41.2931 21.0985 35.4383 21.0792C32.5398 21.0696 30.0169 21.1755 27.985 21.3104V16.2066C30.0169 16.0718 32.5398 15.9755 35.4383 15.9755C41.8806 15.9948 45.3376 16.4281 46.3006 16.5629C47.2539 16.6978 48.7368 17.0348 48.9391 18.2674C49.1509 19.577 49.1509 20.4244 51.2117 20.7133C52.5694 20.9059 54.5628 20.9059 55.2176 20.8963H71.4435V25.9422ZM50.7302 4.73776C48.6694 4.43924 48.6694 3.59184 48.4576 2.29184C48.2554 1.05924 46.782 0.741466 45.8191 0.606651C44.8561 0.471836 41.8902 0.0192434 35.448 -1.58381e-05C27.4554 -0.0289047 22.3517 0.789614 22.3517 0.789614V6.22072C22.3517 6.22072 27.4554 5.40221 35.448 5.43109C41.8902 5.45035 44.8657 5.90295 45.8191 6.03776C46.7724 6.17258 48.2554 6.48072 48.4576 7.72295C48.6694 9.02295 48.6694 9.87998 50.7302 10.1689C52.088 10.3615 54.0813 10.3615 54.7361 10.3518H71.4531V15.4074L55.2368 15.4652C54.6013 15.4748 52.5887 15.4748 51.2213 15.2822C49.1606 14.9837 49.1606 14.1363 48.9487 12.8266C48.7465 11.5941 47.2731 11.257 46.3102 11.1222C45.3568 10.9874 41.8902 10.5541 35.448 10.5348C27.4554 10.5059 22.3517 11.3341 22.3517 11.3341V27.1941C22.3517 27.1941 27.4554 26.4815 35.448 26.5104C41.8902 26.5296 45.9443 27.0689 46.9072 27.2037C47.8605 27.3385 49.3435 27.56 49.5457 28.8022C49.7576 30.1022 49.7576 30.9592 51.8183 31.2481C53.1761 31.4407 55.1694 31.4407 55.8243 31.4311H71.4531H77.0961V4.85332L54.7457 4.93035C54.1006 4.93998 52.0976 4.93998 50.7302 4.73776ZM115.663 31.9992C122.278 31.9992 126.535 28.7637 126.535 23.4096C126.535 13.1059 110.53 18.0074 110.53 12.0755C110.53 10.0629 112.398 8.77258 115.326 8.77258C118.86 8.77258 120.805 10.5637 120.343 13.6741H125.861C126.544 8.01184 122.365 4.24665 115.441 4.24665C109.095 4.24665 104.984 7.40517 104.984 12.6918C104.984 23.1496 120.949 18.0941 120.949 24.0259C120.949 26.077 119.014 27.4829 115.778 27.4829C112.052 27.4829 109.962 25.6533 110.155 22.5429H104.637C104.184 28.3111 108.633 31.9992 115.663 31.9992ZM19.9828 27.4155V21.7533C14.8791 22.36 9.49611 23.3326 6.405 24.0066V2.57109C6.405 2.57109 3.1213 3.11035 0.521301 3.74591V31.4407C0.521301 31.4311 7.51241 29.1103 19.9828 27.4155Z" fill="#11363E"></path>
  </g>
  <defs>
  <clipPath id="clip0">
  <rect width="127" height="32" fill="white" transform="translate(0 -0.000762939)"></rect>
  </clipPath>
  </defs>
</svg>