<?xml version="1.0" ?><!DOCTYPE svg  PUBLIC '-//W3C//DTD SVG 1.1//EN'  'http://www.w3.org/Graphics/SVG/1.1/DTD/svg11.dtd'><!-- Uploaded to: SVG Repo, www.svgrepo.com, Generator: SVG Repo Mixer Tools -->
<svg fill="#000000" viewBox="0 0 32 32" style="fill-rule:evenodd;clip-rule:evenodd;stroke-linejoin:round;stroke-miterlimit:2;" version="1.1" xml:space="preserve" xmlns="http://www.w3.org/2000/svg" xmlns:serif="http://www.serif.com/" xmlns:xlink="http://www.w3.org/1999/xlink"><path d="M29,8c0,-1.326 -0.527,-2.598 -1.464,-3.536c-0.938,-0.937 -2.21,-1.464 -3.536,-1.464c-4.439,-0 -11.561,-0 -16,-0c-1.326,-0 -2.598,0.527 -3.536,1.464c-0.937,0.938 -1.464,2.21 -1.464,3.536c-0,4.439 -0,11.561 -0,16c-0,1.326 0.527,2.598 1.464,3.536c0.938,0.937 2.21,1.464 3.536,1.464c4.439,-0 11.561,0 16,0c1.326,0 2.598,-0.527 3.536,-1.464c0.937,-0.938 1.464,-2.21 1.464,-3.536l-0,-16Zm-12.829,12l-8.171,0c-0.552,-0 -1,0.448 -1,1c-0,0.552 0.448,1 1,1l8.171,0c0.412,1.165 1.524,2 2.829,2c1.305,0 2.417,-0.835 2.829,-2l2.171,0c0.552,-0 1,-0.448 1,-1c-0,-0.552 -0.448,-1 -1,-1l-2.171,0c-0.412,-1.165 -1.524,-2 -2.829,-2c-1.305,0 -2.417,0.835 -2.829,2Zm-6,-10c0.412,-1.165 1.524,-2 2.829,-2c1.305,0 2.417,0.835 2.829,2l8.171,0c0.552,-0 1,0.448 1,1c0,0.552 -0.448,1 -1,1l-8.171,0c-0.412,1.165 -1.524,2 -2.829,2c-1.305,0 -2.417,-0.835 -2.829,-2l-2.171,0c-0.552,-0 -1,-0.448 -1,-1c0,-0.552 0.448,-1 1,-1l2.171,0Z"/><g id="Icon"/></svg>